<?xml version="1.0" encoding="UTF-8" standalone="no"?>
<!-- Created with Inkscape (http://www.inkscape.org/) -->

<svg
   xmlns:dc="http://purl.org/dc/elements/1.1/"
   xmlns:cc="http://creativecommons.org/ns#"
   xmlns:rdf="http://www.w3.org/1999/02/22-rdf-syntax-ns#"
   xmlns:svg="http://www.w3.org/2000/svg"
   xmlns="http://www.w3.org/2000/svg"
   xmlns:sodipodi="http://sodipodi.sourceforge.net/DTD/sodipodi-0.dtd"
   xmlns:inkscape="http://www.inkscape.org/namespaces/inkscape"
   width="58.74506mm"
   height="61.676311mm"
   viewBox="0 0 58.74506 61.676312"
   version="1.1"
   id="svg8"
   inkscape:version="0.92.3 (2405546, 2018-03-11)"
   sodipodi:docname="logo.svg">
  <defs
     id="defs2" />
  <sodipodi:namedview
     id="base"
     pagecolor="#ffffff"
     bordercolor="#666666"
     borderopacity="1.0"
     inkscape:pageopacity="0.0"
     inkscape:pageshadow="2"
     inkscape:zoom="2.8"
     inkscape:cx="110.82644"
     inkscape:cy="103.87893"
     inkscape:document-units="mm"
     inkscape:current-layer="layer1"
     showgrid="false"
     fit-margin-top="3"
     fit-margin-right="4"
     fit-margin-bottom="4"
     fit-margin-left="4"
     inkscape:window-width="1920"
     inkscape:window-height="1051"
     inkscape:window-x="1080"
     inkscape:window-y="0"
     inkscape:window-maximized="1" />
  <metadata
     id="metadata5">
    <rdf:RDF>
      <cc:Work
         rdf:about="">
        <dc:format>image/svg+xml</dc:format>
        <dc:type
           rdf:resource="http://purl.org/dc/dcmitype/StillImage" />
        <dc:title></dc:title>
      </cc:Work>
    </rdf:RDF>
  </metadata>
  <g
     inkscape:label="Layer 1"
     inkscape:groupmode="layer"
     id="layer1"
     transform="translate(-10.336628,-48.693447)">
    <path
       style="fill:#000000;stroke-width:0.12627625"
       d="m 64.780746,97.715302 c -9.785432,5.902678 -17.362567,8.562638 -24.525577,8.652118 -8.192792,0.10234 -15.843827,-3.15801 -25.637665,-8.775204 l -0.03395,-5.357269 -0.03395,-2.711437 4.102641,-2.427985 c 2.256452,-1.335393 4.132726,-2.427987 4.169498,-2.427987 0.03677,0 0.06686,1.298689 0.06686,2.885976 v 2.885975 l 7.671282,4.551284 c 4.219205,2.503206 7.884373,4.676413 8.144818,4.829349 l 0.473536,0.278068 v -9.328573 -9.328571 l -7.258028,-4.037617 c -3.991914,-2.220689 -7.259313,-4.071959 -7.260884,-4.113933 -0.006,-0.159651 15.047373,-9.096769 15.21434,-9.032697 0.175009,0.06716 14.570873,8.571411 14.998664,8.860354 0.194637,0.131463 -0.714982,0.672321 -6.692641,3.979442 -3.804841,2.105015 -7.130984,3.960028 -7.391429,4.122253 L 40.314725,81.5138 v 9.216582 c 0,6.232177 0.04207,9.216583 0.129912,9.216583 0.07145,0 3.73662,-2.138348 8.144818,-4.751883 l 8.014906,-4.751883 v -2.88783 c 0,-1.588307 0.03186,-2.887831 0.07079,-2.887831 0.03894,0 1.914138,1.087776 4.167115,2.41728 l 4.09633,2.41728 v 2.681445 c 0,1.995329 -0.0404,5.440169 -0.15785,5.531759 z m -0.18942,-10.324701 c -0.19099,-0.103277 -2.05198,-1.199746 -4.13554,-2.436598 l -3.78829,-2.248821 -0.06314,-5.143599 -0.06314,-5.143599 -8.384358,-4.988025 -8.384359,-4.988023 -0.770669,0.437498 c -0.423869,0.240624 -4.208541,2.471963 -8.410383,4.95853 l -7.639713,4.521032 -0.03662,5.175631 -0.03662,5.175629 -3.54614,2.083558 c -1.950375,1.145957 -3.823304,2.244515 -4.162063,2.441241 l -0.615925,0.357684 V 76.874124 66.15551 l 12.532918,-7.180693 c 6.893105,-3.949381 12.593327,-7.180807 12.667161,-7.180945 0.07383,-1.27e-4 5.770471,3.228621 12.659194,7.175023 l 12.524947,7.175274 v 10.717103 10.717105 z"
       id="path826"
       inkscape:connector-curvature="0"
       sodipodi:nodetypes="cscccssscsscccscccsccssscssscsccscccccsscccsscccscscccc" />
    <rect
       style="opacity:1;fill:#ffffff;fill-opacity:1;stroke:none;stroke-width:0.25664356;stroke-miterlimit:4;stroke-dasharray:none;stroke-opacity:1"
       id="rect830"
       width="2.5513394"
       height="12.378719"
       x="38.553574"
       y="51.693447" />
    <rect
       style="opacity:1;fill:#ffffff;fill-opacity:1;stroke:none;stroke-width:0.29574797;stroke-miterlimit:4;stroke-dasharray:none;stroke-opacity:1"
       id="rect830-6"
       width="4.6894951"
       height="8.9433565"
       x="83.239723"
       y="-65.081688"
       transform="rotate(90)" />
    <rect
       style="opacity:1;fill:#ffffff;fill-opacity:1;stroke:none;stroke-width:0.30230409;stroke-miterlimit:4;stroke-dasharray:none;stroke-opacity:1"
       id="rect830-6-7"
       width="4.6894951"
       height="9.3442612"
       x="82.988586"
       y="-23.680889"
       transform="rotate(90)" />
  </g>
</svg>
